<svg width="24" height="24" viewBox="0 0 24 24" fill="none" xmlns="http://www.w3.org/2000/svg">
<path d="M1.99927 11.9993C1.99927 17.5221 6.47642 21.9993 11.9993 21.9993C17.5221 21.9993 21.9993 17.5221 21.9993 11.9993C21.9993 6.47642 17.5221 1.99927 11.9993 1.99927C6.47642 1.99927 1.99927 6.47642 1.99927 11.9993ZM16.53 11.7192C16.7962 11.9854 16.8204 12.4021 16.6026 12.6957L16.53 12.7798L12.5291 16.7806C12.2628 17.0469 11.8461 17.0711 11.5525 16.8532L11.4684 16.7805L7.46838 12.779C7.17554 12.4861 7.17563 12.0112 7.46858 11.7183C7.7349 11.4521 8.15157 11.428 8.44514 11.6459L8.52924 11.7186L11.2499 14.4405L11.2496 7.74878C11.2496 7.36908 11.5318 7.05529 11.8979 7.00563L11.9996 6.99878C12.3793 6.99878 12.6931 7.28093 12.7428 7.64701L12.7496 7.74878L12.7499 14.4385L15.4693 11.7192C15.7356 11.4529 16.1522 11.4287 16.4458 11.6465L16.53 11.7192Z" fill="black"/>
</svg>
