<svg width="412" height="288" viewBox="0 0 412 288" fill="none" xmlns="http://www.w3.org/2000/svg">
<path d="M360.245 193.14C366.344 142.937 344.324 100.019 310.026 71.9876L364.998 17.0334C326.343 -17.2536 275.332 -38 219.569 -38C98.2991 -38 0 60.2682 0 181.5C0 302.732 98.2991 401 219.569 401C340.839 401 432.801 308.908 438.821 193.14H360.245ZM219.569 310.413C148.36 310.413 90.6949 252.687 90.6949 181.5C90.6949 110.313 148.36 52.5873 219.569 52.5873C290.778 52.5873 348.522 110.313 348.522 181.5C348.522 252.687 290.778 310.413 219.569 310.413Z" fill="#0A3F4D"/>
<path d="M219.569 60.5059C152.875 60.5059 98.6162 114.827 98.6162 181.5C98.6162 248.174 152.875 302.494 219.569 302.494C286.264 302.494 340.601 248.174 340.601 181.5C340.601 114.827 286.343 60.5059 219.569 60.5059ZM219.332 84.1821C228.52 84.1821 236.045 91.7046 236.045 100.89C236.045 110.075 228.52 117.598 219.332 117.598C210.143 117.598 202.618 110.155 202.618 100.89C202.618 91.6255 210.064 84.1821 219.332 84.1821ZM142.736 174.057C133.468 174.057 126.023 166.613 126.023 157.349C126.023 148.084 133.468 140.641 142.736 140.641C152.003 140.641 159.449 148.163 159.449 157.349C159.449 166.534 152.003 174.057 142.736 174.057ZM171.727 264.406C162.459 264.406 155.013 256.884 155.013 247.699C155.013 238.513 162.459 230.991 171.727 230.991C180.994 230.991 188.44 238.434 188.44 247.699C188.44 256.963 180.915 264.406 171.727 264.406ZM168.717 181.5C168.717 153.39 191.45 130.664 219.569 130.664C247.689 130.664 270.422 153.39 270.422 181.5C270.422 209.611 247.609 232.258 219.569 232.258C191.529 232.258 168.717 209.531 168.717 181.5ZM267.174 264.406C257.986 264.406 250.54 256.884 250.54 247.699C250.54 238.513 257.986 230.991 267.174 230.991C276.362 230.991 283.887 238.434 283.887 247.699C283.887 256.963 276.442 264.406 267.174 264.406ZM296.402 174.057C287.135 174.057 279.689 166.613 279.689 157.349C279.689 148.084 287.135 140.641 296.402 140.641C305.67 140.641 313.116 148.163 313.116 157.349C313.116 166.534 305.591 174.057 296.402 174.057Z" fill="#0A3F4D"/>
<path d="M368.958 185.221C371.572 142.224 354.621 101.523 321.67 71.512L398.186 -4.98047C447.296 46.8855 475.099 113.876 477 185.221H368.958Z" fill="#0A3F4D"/>
</svg>
