<svg width="495" height="538" viewBox="0 0 495 538" fill="none" xmlns="http://www.w3.org/2000/svg">
<path d="M234.375 406.199C290.982 413.076 339.375 388.247 370.982 349.574L432.946 411.558C471.607 367.973 495 310.455 495 247.578C495 110.838 384.196 -4.85801e-06 247.5 -1.08513e-05C110.804 -1.68445e-05 -6.05467e-05 110.838 -6.65057e-05 247.578C-7.24648e-05 384.317 103.839 488.01 234.375 494.798L234.375 406.199ZM102.143 247.578C102.143 167.285 167.232 102.264 247.5 102.264C327.768 102.264 392.857 167.285 392.857 247.578C392.857 327.871 327.768 392.98 247.5 392.98C167.232 392.98 102.143 327.871 102.143 247.578Z" fill="#0A3F4D"/>
<path d="M383.928 247.578C383.928 172.376 322.678 111.196 247.5 111.196C172.321 111.196 111.071 172.376 111.071 247.578C111.071 322.78 172.321 384.05 247.5 384.05C322.678 384.05 383.928 322.87 383.928 247.578ZM357.232 247.31C357.232 257.671 348.75 266.155 338.393 266.155C328.036 266.155 319.553 257.671 319.553 247.31C319.553 236.95 327.946 228.465 338.393 228.465C348.839 228.465 357.232 236.861 357.232 247.31ZM255.893 160.944C255.893 150.494 264.286 142.099 274.732 142.099C285.178 142.099 293.571 150.494 293.571 160.944C293.571 171.394 285.089 179.789 274.732 179.789C264.375 179.789 255.893 171.394 255.893 160.944ZM154.018 193.633C154.018 183.183 162.5 174.787 172.857 174.787C183.214 174.787 191.696 183.183 191.696 193.633C191.696 204.082 183.303 212.478 172.857 212.478C162.411 212.478 154.018 203.993 154.018 193.633ZM247.5 190.239C279.196 190.239 304.821 215.872 304.821 247.578C304.821 279.285 279.196 304.918 247.5 304.918C215.803 304.918 190.268 279.195 190.268 247.578C190.268 215.961 215.893 190.239 247.5 190.239ZM154.018 301.256C154.018 290.895 162.5 282.5 172.857 282.5C183.214 282.5 191.696 290.895 191.696 301.256C191.696 311.616 183.303 320.101 172.857 320.101C162.411 320.101 154.018 311.705 154.018 301.256ZM255.893 334.212C255.893 323.763 264.286 315.367 274.732 315.367C285.178 315.367 293.571 323.763 293.571 334.212C293.571 344.662 285.089 353.058 274.732 353.058C264.375 353.058 255.893 344.573 255.893 334.212Z" fill="#0A3F4D"/>
<path d="M243.304 416.023C291.786 418.971 337.679 399.857 371.518 362.703L457.768 448.98C399.286 504.354 323.75 535.704 243.304 537.847L243.304 416.023Z" fill="#0A3F4D"/>
</svg>
