<svg width="69" height="68" viewBox="0 0 69 68" fill="none" xmlns="http://www.w3.org/2000/svg">
<g clip-path="url(#clip0_43_457)">
<path fill-rule="evenodd" clip-rule="evenodd" d="M3.43634 8.50002C3.43634 7.74857 3.73924 7.0279 4.27841 6.49655C4.81758 5.9652 5.54884 5.66669 6.31134 5.66669H37.9363C38.6988 5.66669 39.4301 5.9652 39.9693 6.49655C40.5084 7.0279 40.8113 7.74857 40.8113 8.50002V22.6667H52.3113C54.1991 22.6667 56.0684 23.0331 57.8124 23.7451C59.5565 24.457 61.1412 25.5005 62.476 26.816C63.8108 28.1315 64.8697 29.6932 65.5921 31.412C66.3145 33.1308 66.6863 34.973 66.6863 36.8334V48.1667C66.6871 49.9908 66.0924 51.7667 64.9902 53.232C63.8879 54.6974 62.3366 55.7744 60.5655 56.304C60.0382 58.0182 58.9749 59.5244 57.5274 60.6076C56.0799 61.6908 54.3221 62.2957 52.505 62.336C50.6879 62.3762 48.9044 61.8496 47.409 60.8315C45.9136 59.8134 44.7828 58.3558 44.178 56.6667H25.9476C25.3428 58.3558 24.2119 59.8134 22.7165 60.8315C21.2211 61.8496 19.4376 62.3762 17.6205 62.336C15.8034 62.2957 14.0457 61.6908 12.5982 60.6076C11.1507 59.5244 10.0874 58.0182 9.56009 56.304C7.78839 55.7749 6.23644 54.6981 5.13365 53.2327C4.03087 51.7673 3.43577 49.9911 3.43634 48.1667V36.8334H20.6863C21.4488 36.8334 22.1801 36.5348 22.7193 36.0035C23.2584 35.4721 23.5613 34.7515 23.5613 34C23.5613 33.2486 23.2584 32.5279 22.7193 31.9966C22.1801 31.4652 21.4488 31.1667 20.6863 31.1667H3.43634V25.5H14.9363C15.6988 25.5 16.4301 25.2015 16.9693 24.6702C17.5084 24.1388 17.8113 23.4181 17.8113 22.6667C17.8113 21.9152 17.5084 21.1946 16.9693 20.6632C16.4301 20.1319 15.6988 19.8334 14.9363 19.8334H3.43634V8.50002ZM40.8113 51H44.178C44.7463 49.4146 45.7791 48.031 47.1455 47.0241C48.5119 46.0172 50.1507 45.4323 51.8545 45.3435C53.5583 45.2546 55.2505 45.6657 56.7172 46.5248C58.1838 47.3839 59.359 48.6524 60.094 50.1699C60.6332 49.6386 60.9362 48.9181 60.9363 48.1667V36.8334C60.9363 34.579 60.0276 32.417 58.4101 30.8229C56.7926 29.2289 54.5988 28.3334 52.3113 28.3334H40.8113V51ZM20.6863 53.8334C20.6863 53.0819 20.3834 52.3612 19.8443 51.8299C19.3051 51.2985 18.5738 51 17.8113 51C17.0488 51 16.3176 51.2985 15.7784 51.8299C15.2392 52.3612 14.9363 53.0819 14.9363 53.8334C14.9363 54.5848 15.2392 55.3055 15.7784 55.8368C16.3176 56.3682 17.0488 56.6667 17.8113 56.6667C18.5738 56.6667 19.3051 56.3682 19.8443 55.8368C20.3834 55.3055 20.6863 54.5848 20.6863 53.8334ZM50.2787 51.8302C49.7395 52.3614 49.4365 53.082 49.4363 53.8334C49.4362 54.4889 49.6667 55.1241 50.0886 55.631C50.5104 56.1378 51.0976 56.4847 51.7499 56.6127C52.4022 56.7408 53.0795 56.6419 53.6661 56.333C54.2528 56.0241 54.7126 55.5243 54.9673 54.9187C55.2219 54.3131 55.2557 53.6393 55.0627 53.012C54.8697 52.3846 54.462 51.8427 53.909 51.4784C53.356 51.1141 52.692 50.9501 52.03 51.0142C51.368 51.0784 50.7491 51.3667 50.2787 51.8302Z" fill="#FFC107"/>
</g>
<defs>
<clipPath id="clip0_43_457">
<rect width="68" height="68" fill="white" transform="translate(0.56134)"/>
</clipPath>
</defs>
</svg>
