<svg width="32" height="32" viewBox="0 0 32 32" fill="none" xmlns="http://www.w3.org/2000/svg">
<path d="M15.7275 0C7.07739 0 0 7.06167 0 15.759C0 23.6228 5.75628 30.1497 13.274 31.3293V20.32H9.27925V15.759H13.274V12.2832C13.274 8.3356 15.6174 6.1652 19.2191 6.1652C20.9334 6.1652 22.7263 6.46402 22.7263 6.46402V10.3487H20.7446C18.7944 10.3487 18.181 11.5597 18.181 12.8022V15.759H22.5533L21.8456 20.32H18.181V31.3293C21.8871 30.7439 25.2619 28.853 27.6961 25.9977C30.1303 23.1425 31.4635 19.511 31.4551 15.759C31.4551 7.06167 24.3777 0 15.7275 0Z" fill="black"/>
</svg>
