<svg width="24" height="24" viewBox="0 0 24 24" fill="none" xmlns="http://www.w3.org/2000/svg">
<path d="M17.4418 6.59926C18.318 8.55526 18.1192 10.8578 17.149 12.729C16.3531 14.2643 15.1653 15.534 14.1864 16.9395C13.7389 17.583 13.2871 18.252 12.9798 18.9848C12.8779 19.2285 12.7897 19.4783 12.7029 19.7288C12.6155 19.9785 12.541 20.2335 12.4571 20.4848C12.3783 20.7202 12.2865 20.9977 12.0039 21H11.9988C11.6619 20.9993 11.5802 20.6025 11.4963 20.3348C11.291 19.6793 11.0763 19.05 10.7597 18.441C10.391 17.733 9.9319 17.0783 9.4656 16.4378L17.4418 6.59926ZM9.50247 8.77876L6.64035 12.309C7.16376 13.464 7.95682 14.4563 8.71591 15.444C8.89472 15.6765 9.07232 15.9105 9.24872 16.146L12.8519 11.7023L12.8309 11.7098C11.5723 12.1605 10.1625 11.4915 9.65574 10.2195C9.58654 10.0468 9.53587 9.86672 9.50464 9.68251C9.4591 9.35476 9.44898 9.11176 9.50175 8.78401L9.50247 8.77876ZM7.29533 5.36176L7.29316 5.36476C5.8856 7.21426 5.64414 9.77476 6.48564 11.9423L9.94491 7.67551L9.90298 7.63801L7.29533 5.36176ZM13.924 3.32701L11.1493 6.74926L11.1689 6.74176C12.3256 6.32851 13.629 6.85426 14.2197 7.96126C14.3469 8.20051 14.4532 8.47351 14.4922 8.74501C14.5414 9.07951 14.5537 9.32476 14.5009 9.66001L14.4987 9.67201L17.2719 6.25126C16.5473 4.87991 15.3559 3.83806 13.9305 3.32926L13.924 3.32701ZM10.1683 7.40101L13.5632 3.21376L13.5293 3.20476C13.0269 3.06769 12.5095 2.99886 11.9901 3.00001C11.1491 3.00823 10.3187 3.19676 9.55123 3.55375C8.78375 3.91075 8.0957 4.42851 7.53029 5.07451L7.51872 5.08801L10.1683 7.40101Z" fill="white"/>
</svg>
