<svg width="24" height="22" viewBox="0 0 24 22" fill="none" xmlns="http://www.w3.org/2000/svg">
<path d="M13.4508 1.53318C12.6128 0.826181 11.3872 0.826181 10.5492 1.53318L3.79916 7.22772C3.29241 7.65523 3 8.28447 3 8.94747V18.2526C3 19.2191 3.7835 20.0026 4.75 20.0026H7.75C8.7165 20.0026 9.5 19.2191 9.5 18.2526V14.25C9.5 13.5707 10.0418 13.018 10.7169 13.0004H13.2831C13.9582 13.018 14.5 13.5707 14.5 14.25V18.2526C14.5 19.2191 15.2835 20.0026 16.25 20.0026H19.25C20.2165 20.0026 21 19.2191 21 18.2526V8.94747C21 8.28447 20.7076 7.65523 20.2008 7.22772L13.4508 1.53318Z" fill="black"/>
</svg>
