<svg width="32" height="32" viewBox="0 0 32 32" fill="none" xmlns="http://www.w3.org/2000/svg">
<path d="M15.7277 -0.137329C6.9929 -0.137329 -0.0878906 6.96554 -0.0878906 15.7276C-0.0878906 24.4897 6.9929 31.5926 15.7277 31.5926C24.4626 31.5926 31.5434 24.4897 31.5434 15.7276C31.5434 6.96554 24.4626 -0.137329 15.7277 -0.137329ZM11.8562 22.3033H8.65354V11.9646H11.8562V22.3033ZM10.2351 10.6954C9.22356 10.6954 8.56952 9.97657 8.56952 9.08747C8.56952 8.1802 9.24333 7.4828 10.2763 7.4828C11.3092 7.4828 11.9419 8.1802 11.9616 9.08747C11.9616 9.97657 11.3092 10.6954 10.2351 10.6954ZM23.5532 22.3033H20.3505V16.5737C20.3505 15.2401 19.8859 14.3345 18.7278 14.3345C17.8431 14.3345 17.3175 14.9476 17.0852 15.5376C16.9996 15.7474 16.9782 16.0449 16.9782 16.3407V22.3016H13.7738V15.2616C13.7738 13.9709 13.7327 12.8918 13.6898 11.963H16.4724L16.619 13.3991H16.6833C17.105 12.7248 18.138 11.73 19.8662 11.73C21.9733 11.73 23.5532 13.1463 23.5532 16.1903V22.3033Z" fill="black"/>
</svg>
