<svg width="25" height="24" viewBox="0 0 25 24" fill="none" xmlns="http://www.w3.org/2000/svg">
<path d="M18.1573 16.8822L16.9703 18.0561C16.0954 18.9148 14.9603 20.0187 13.5644 21.3683C12.6922 22.2117 11.3084 22.2115 10.4362 21.3681L6.94515 17.9722C6.50638 17.5414 6.13912 17.1781 5.84328 16.8822C2.44287 13.4818 2.44287 7.96866 5.84328 4.56825C9.24369 1.16784 14.7568 1.16784 18.1573 4.56825C21.5577 7.96866 21.5577 13.4818 18.1573 16.8822ZM14.5005 10.9999C14.5005 9.61912 13.3811 8.49974 12.0003 8.49974C10.6194 8.49974 9.50006 9.61912 9.50006 10.9999C9.50006 12.3808 10.6194 13.5001 12.0003 13.5001C13.3811 13.5001 14.5005 12.3808 14.5005 10.9999Z" fill="#FFC107"/>
</svg>
