<svg width="17" height="17" viewBox="0 0 17 17" fill="none" xmlns="http://www.w3.org/2000/svg">
<path d="M11.5 3C11.5 2.44772 11.9477 2 12.5 2C13.0523 2 13.5 2.44772 13.5 3C13.5 3.27614 13.7239 3.5 14 3.5C14.2761 3.5 14.5 3.27614 14.5 3C14.5 1.89543 13.6046 1 12.5 1C11.3954 1 10.5 1.89543 10.5 3V4.5H5C3.61929 4.5 2.5 5.61929 2.5 7V12C2.5 13.3807 3.61929 14.5 5 14.5H12C13.3807 14.5 14.5 13.3807 14.5 12V7C14.5 5.61929 13.3807 4.5 12 4.5H11.5V3ZM8.5 10.5C7.94772 10.5 7.5 10.0523 7.5 9.5C7.5 8.94772 7.94772 8.5 8.5 8.5C9.05228 8.5 9.5 8.94772 9.5 9.5C9.5 10.0523 9.05228 10.5 8.5 10.5Z" fill="white"/>
</svg>
