<svg width="263" height="55" viewBox="0 0 263 55" fill="none" xmlns="http://www.w3.org/2000/svg">
<g clip-path="url(#clip0_81_1594)">
<path d="M150.069 3.17684C152.041 3.02951 187.881 3.07435 193.71 3.09037C193.816 3.14161 196.845 2.70925 205.768 17.1598C205.768 17.1598 201.217 18.7964 200.947 18.7964C200.677 18.7964 149.844 17.2271 149.844 17.2271L200.215 16.2951C197.854 12.423 195.287 8.74954 192.483 5.31304" fill="white"/>
<path d="M216.696 32.4273V54.827H263.003L218.247 53.7797C218.247 53.7797 218.427 38.1825 218.247 29.0741C218.067 19.9656 211.01 19.5332 211.01 19.5332C196.383 18.9984 187.437 31.1878 187.437 31.1878C196.582 27.1428 206.436 25.7336 206.841 25.1123C211.325 19.6293 216.692 22.4733 216.692 32.4273H216.696Z" fill="white"/>
<path d="M187.652 32.5621C187.652 32.5621 202.996 26.698 207.981 27.3545C212.966 28.0079 205.399 36.21 204.101 36.3733C202.804 36.5367 188.786 38.0099 188.786 38.0099L203.295 34.4389C204.13 33.4717 204.699 32.2675 205.473 29.9135C206.247 27.5595 187.652 32.5621 187.652 32.5621Z" fill="white"/>
<path d="M190.1 41.9651C190.1 41.9651 204.034 39.0635 207.654 39.0635C215.812 39.1339 207.496 54.8112 202.881 54.8304C198.265 54.8496 182.516 54.84 182.516 54.84L201.474 52.1465C201.474 52.1465 206.892 41.5199 202.996 41.3406C199.213 41.1677 190.1 41.9651 190.1 41.9651Z" fill="white"/>
<path d="M183.265 38.8935C181.906 35.6524 179.176 33.6443 176.224 33.5162L150.178 31.8027L178.238 31.838C180.258 31.8284 182.06 33.023 183.576 34.6692C185.147 36.373 186.435 39.0569 186.859 40.9785C188.523 48.5369 183.175 54.8206 179.128 54.8206C175.081 54.8206 0 54.9999 0 54.9999L173.738 53.4594C175.344 53.4434 178.566 52.8189 179.905 51.7171C184.987 47.5344 185.15 43.3869 183.265 38.8935Z" fill="white"/>
<path d="M207.859 16.0872L210.137 14.7517C210.422 14.5852 210.728 14.4571 211.049 14.377C212.658 13.9798 214.8 13.8517 216.866 14.2457C217.743 14.5083 221.799 17.2434 214.075 19.7703L216.435 17.1826C217.303 16.1161 216.362 15.1777 215.536 15.2833L207.859 16.0904V16.0872Z" fill="white"/>
<path d="M70.6066 5.75221L62.2328 27.5626H71.7693L67.6419 33.9936H50.9362L55.4234 22.291L55.4619 22.1308C54.6621 21.865 53.9523 21.6312 53.3388 21.4326C52.7253 21.2341 51.9351 21.0259 50.9747 20.8145C50.8398 20.8946 50.5957 20.9426 50.2327 20.9554C49.873 20.9682 49.5711 20.9747 49.3302 20.9747C48.9544 20.9747 48.5368 20.9426 48.0678 20.8754C47.5989 20.8081 47.1653 20.7152 46.767 20.5967C46.3655 20.4782 46.0378 20.3501 45.7841 20.2188C45.5303 20.0843 45.4308 19.9402 45.4822 19.78C45.7488 19.7256 46.0443 19.6551 46.3623 19.5591C46.6835 19.4662 46.9822 19.3733 47.2648 19.2804C47.5443 19.1875 47.7852 19.0947 47.9843 19.0018C48.1835 18.9089 48.2991 18.8352 48.3248 18.7808C48.3794 18.7264 48.0968 18.7007 47.4833 18.7007C47.1878 18.7007 46.8473 18.6943 46.4618 18.6815C46.0732 18.6687 45.6524 18.6495 45.1995 18.6207C44.8783 18.6207 44.5057 18.5598 44.0785 18.4413C43.6513 18.3228 43.2305 18.1403 42.8162 17.9033C42.4018 17.6631 42.0068 17.3716 41.6342 17.0257C41.2584 16.6798 40.9661 16.2667 40.7541 15.7863C41.207 15.8407 41.7819 15.892 42.4757 15.9464C43.1695 16.0009 43.8119 16.0265 44.3997 16.0265L45.4404 15.908C44.9586 15.7478 44.2648 15.4756 43.3558 15.0881C42.4468 14.7038 41.525 14.249 40.5903 13.7301C39.6556 13.2113 38.8012 12.6572 38.0271 12.0711C37.253 11.485 36.7583 10.9118 36.5431 10.3545L36.7423 10.3961C37.1952 10.4506 37.6898 10.5018 38.2262 10.5563C38.7594 10.6107 39.4821 10.6363 40.3911 10.6363H41.6727C41.9393 10.6363 42.0871 10.6235 42.1128 10.5947C40.8569 10.0086 39.7487 9.37126 38.7883 8.67628C37.8279 7.98449 36.9639 7.21264 36.2059 6.36072C35.4446 5.50881 34.7765 4.5576 34.2016 3.50391C33.6266 2.45343 33.0998 1.28764 32.618 0.00976562C34.5677 0.755995 36.6427 1.4734 38.8461 2.16839C41.0496 2.86017 43.3655 3.47509 45.797 4.00674C48.2284 4.53839 50.7788 4.96435 53.448 5.28462C56.1172 5.60489 58.9084 5.76502 61.8217 5.76502H70.5969L70.6066 5.75221Z" fill="white"/>
<path d="M83.1848 25.4459C82.8636 26.2722 82.7898 26.8294 82.9632 27.1241C83.1367 27.4187 83.5574 27.5628 84.2255 27.5628H85.3465C86.0146 27.5628 86.5414 27.4155 86.93 27.1241C87.3155 26.8294 87.672 26.2722 87.99 25.4459L95.5607 5.75244H104.375L95.1207 29.84C94.5586 31.278 93.8038 32.3317 92.8562 32.9946C91.9087 33.6608 90.6592 33.9939 89.111 33.9939H75.5691C74.0209 33.9939 73.0124 33.6608 72.5434 32.9946C72.0745 32.3285 72.1226 31.278 72.6847 29.84L81.9386 5.75244H90.7523L83.1816 25.4459H83.1848Z" fill="white"/>
<path d="M109.148 33.9937L108.826 28.28L104.14 33.9937H95.3263L107.265 19.8121L106.183 5.74902H114.997L115.276 11.5011L120.004 5.74902H128.818L116.921 19.8121L117.961 33.9937H109.148Z" fill="white"/>
<path d="M18.0708 38.8906C18.4402 38.8906 18.7325 39.0444 18.9477 39.3486C19.1597 39.6561 19.2014 39.9827 19.073 40.3318L16.9884 46.0615C16.831 46.4938 16.5676 46.8397 16.2014 47.0927C15.8352 47.3458 15.4241 47.4739 14.9712 47.4739H7.03111L10.1596 38.8906H18.074H18.0708ZM11.0333 45.3249H14.0237L15.5943 41.0396H12.604L11.0333 45.3249Z" fill="white"/>
<path d="M29.9328 41.0396H23.467L23.0783 42.1478H28.4585L27.7486 43.9381H22.3653L21.906 45.3249H28.3589L27.5816 47.4739H17.8877L21.0162 38.8906H30.7101L29.9328 41.0396Z" fill="white"/>
<path d="M39.6556 45.3249L38.8783 47.4739H29.1844L29.9617 45.3249L36.9157 41.0396H31.5356L32.3129 38.8906H42.0068L41.2295 41.0396L35.3482 45.3249H39.6588H39.6556Z" fill="white"/>
<path d="M40.4746 47.4739L43.6031 38.8906H46.828L48.0935 41.3471L51.1385 38.8906H54.3634L51.2349 47.4739H48.01C48.4533 46.2344 49.0571 44.5754 49.8184 42.4969C49.7734 42.5513 49.722 42.6058 49.6642 42.657C49.6096 42.7082 49.5486 42.7595 49.4843 42.8139C49.4201 42.8684 49.3687 42.91 49.3302 42.9388L46.7445 45.0462L45.7841 43.0477C45.7745 43.0221 45.7456 42.9549 45.7006 42.8556C45.6556 42.7563 45.6171 42.6602 45.5882 42.5705C45.5593 42.4809 45.5464 42.3944 45.5464 42.2983L43.6963 47.4707H40.4714L40.4746 47.4739Z" fill="white"/>
<path d="M64.8828 41.0396H58.417L58.0283 42.1478H63.4084L62.6986 43.9381H57.3152L56.8559 45.3249H63.3089L62.5316 47.4739H52.8377L55.9662 38.8906H65.6601L64.8828 41.0396Z" fill="white"/>
<path d="M64.1311 47.4739L67.2596 38.8906H70.4845L71.7501 41.3471L74.795 38.8906H78.0199L74.8914 47.4739H71.6665C72.1098 46.2344 72.7137 44.5754 73.4749 42.4969C73.4299 42.5513 73.3785 42.6058 73.3207 42.657C73.2661 42.7082 73.2051 42.7595 73.1409 42.8139C73.0766 42.8684 73.0252 42.91 72.9867 42.9388L70.401 45.0462L69.4406 43.0477C69.431 43.0221 69.4021 42.9549 69.3571 42.8556C69.3121 42.7563 69.2736 42.6602 69.2447 42.5705C69.2158 42.4809 69.2029 42.3944 69.2029 42.2983L67.3528 47.4707H64.1279L64.1311 47.4739Z" fill="white"/>
<path d="M76.4942 47.4739L79.6227 38.8906H87.7716C88.141 38.8906 88.4333 39.0444 88.6485 39.3486C88.8605 39.6561 88.9022 39.9827 88.7737 40.3318L88.0639 42.2727C87.8134 42.8364 87.4375 43.1374 86.9365 43.1758H86.9911C87.02 43.1854 87.0425 43.1919 87.0682 43.1951C87.0906 43.1983 87.1196 43.2079 87.1581 43.2143C87.1934 43.2239 87.2288 43.2367 87.2609 43.2559C87.293 43.2751 87.3251 43.3007 87.3572 43.3328C87.3894 43.3648 87.4151 43.4032 87.4343 43.4449C87.4536 43.4865 87.4665 43.5377 87.4761 43.5986C87.4857 43.6594 87.4825 43.7299 87.4697 43.8132C87.4568 43.8964 87.4343 43.9829 87.4054 44.0758L86.6827 46.0583C86.5253 46.4906 86.2652 46.8365 85.8958 47.0895C85.5296 47.3426 85.1185 47.4707 84.6656 47.4707H76.4878L76.4942 47.4739ZM84.3925 43.9381H80.8754L80.3615 45.3249H83.8786L84.3925 43.9381ZM81.9193 41.0396L81.3765 42.3976H84.8968L85.4525 41.0396H81.9193Z" fill="white"/>
<path d="M87.7331 47.4739L90.8616 38.8906H99.0104C99.3798 38.8906 99.6721 39.0444 99.8873 39.3486C100.099 39.6561 100.141 39.9827 100.013 40.3318L99.094 42.8428C98.9366 43.2783 98.6732 43.621 98.307 43.8772C97.9408 44.1302 97.5297 44.2584 97.0768 44.2584H96.8391L98.4805 47.4771H95.2524L93.611 44.2584H92.1239L90.9547 47.4771H87.7298L87.7331 47.4739ZM93.2256 41.0396L92.7245 42.3976H96.1871L96.6882 41.0396H93.2256Z" fill="white"/>
<path d="M98.8306 47.4739L101.445 40.3062C101.603 39.8707 101.863 39.528 102.232 39.2717C102.598 39.0187 103.013 38.8906 103.478 38.8906H111.656L108.528 47.4739H105.287L106.08 45.3249H102.852L102.059 47.4739H98.8338H98.8306ZM104.407 41.0396L103.629 43.1887H106.857L107.635 41.0396H104.41H104.407Z" fill="white"/>
<path d="M110.124 47.4739L113.253 38.8906H121.401C121.771 38.8906 122.063 39.0444 122.278 39.3486C122.49 39.6561 122.532 39.9827 122.404 40.3318L121.485 42.8428C121.328 43.2783 121.064 43.621 120.698 43.8772C120.332 44.1302 119.921 44.2584 119.468 44.2584H119.23L120.871 47.4771H117.643L116.002 44.2584H114.515L113.346 47.4771H110.121L110.124 47.4739ZM115.617 41.0396L115.116 42.3976H118.578L119.079 41.0396H115.617Z" fill="white"/>
<path d="M121.222 47.4737L124.35 38.9033H127.575L124.446 47.4737H121.222Z" fill="white"/>
<path d="M130.218 47.4739L132.833 40.3062C132.99 39.8707 133.251 39.528 133.62 39.2717C133.986 39.0187 134.4 38.8906 134.866 38.8906H143.044L139.915 47.4739H136.675L137.468 45.3249H134.24L133.446 47.4739H130.222H130.218ZM135.794 41.0396L135.017 43.1887H138.245L139.023 41.0396H135.798H135.794Z" fill="white"/>
<path d="M147.698 38.8906L145.347 45.3249H148.325L150.676 38.8906H153.901L151.286 46.0615C151.129 46.4938 150.865 46.8397 150.499 47.0927C150.133 47.3458 149.719 47.4739 149.253 47.4739H142.871C142.492 47.4739 142.193 47.3201 141.981 47.0159C141.769 46.7116 141.727 46.3849 141.856 46.0326L144.454 38.8906H147.695H147.698Z" fill="white"/>
<path d="M160.495 41.0396L158.144 47.4739H154.916L157.267 41.0396H154.039L154.816 38.8906C158.876 38.8906 161.921 38.897 163.954 38.9066L163.177 41.0557L160.492 41.0428L160.495 41.0396Z" fill="white"/>
<path d="M174.637 38.8906L172.023 46.0615C171.865 46.4938 171.602 46.8397 171.236 47.0927C170.87 47.3458 170.459 47.4739 170.006 47.4739H162.149L164.764 40.3062C164.921 39.8707 165.181 39.528 165.551 39.2717C165.917 39.0187 166.328 38.8906 166.781 38.8906H174.637ZM166.154 45.3249H169.061L170.632 41.0396H167.725L166.154 45.3249Z" fill="white"/>
</g>
<defs>
<clipPath id="clip0_81_1594">
<rect width="263" height="55" fill="white"/>
</clipPath>
</defs>
</svg>
