<svg width="204" height="43" viewBox="0 0 204 43" fill="none" xmlns="http://www.w3.org/2000/svg">
<g clip-path="url(#clip0_81_2042)">
<path d="M116.403 2.48389C117.933 2.36871 145.732 2.40376 150.254 2.41628C150.336 2.45634 152.686 2.11831 159.607 13.416C159.607 13.416 156.077 14.6956 155.867 14.6956C155.658 14.6956 116.229 13.4686 116.229 13.4686L155.299 12.74C153.468 9.71274 151.478 6.84073 149.303 4.15401" fill="black"/>
<path d="M168.083 25.3523V42.8648H204.003L169.287 42.046C169.287 42.046 169.426 29.8519 169.287 22.7307C169.147 15.6095 163.673 15.2715 163.673 15.2715C152.327 14.8533 145.389 24.3833 145.389 24.3833C152.482 21.2208 160.126 20.1191 160.44 19.6333C163.918 15.3466 168.081 17.5701 168.081 25.3523H168.083Z" fill="black"/>
<path d="M145.556 25.4574C145.556 25.4574 157.457 20.8727 161.324 21.386C165.191 21.8968 159.321 28.3094 158.314 28.4371C157.308 28.5648 146.435 29.7166 146.435 29.7166L157.689 26.9247C158.337 26.1686 158.778 25.2271 159.378 23.3867C159.979 21.5463 145.556 25.4574 145.556 25.4574Z" fill="black"/>
<path d="M147.454 32.809C147.454 32.809 158.262 30.5405 161.069 30.5405C167.398 30.5956 160.947 42.8523 157.367 42.8673C153.787 42.8823 141.571 42.8748 141.571 42.8748L156.276 40.769C156.276 40.769 160.479 32.461 157.457 32.3208C154.522 32.1855 147.454 32.809 147.454 32.809Z" fill="black"/>
<path d="M142.152 30.4077C141.098 27.8737 138.981 26.3038 136.691 26.2036L116.488 24.864L138.253 24.8916C139.82 24.884 141.218 25.818 142.394 27.105C143.612 28.4371 144.611 30.5354 144.94 32.0378C146.231 37.9471 142.082 42.8598 138.943 42.8598C135.804 42.8598 0 43 0 43L134.763 41.7956C136.008 41.7831 138.507 41.2948 139.546 40.4335C143.488 37.1633 143.615 33.9207 142.152 30.4077Z" fill="black"/>
<path d="M161.229 12.5772L162.996 11.5331C163.218 11.4029 163.454 11.3027 163.704 11.2401C164.952 10.9296 166.614 10.8295 168.216 11.1375C168.896 11.3428 172.042 13.4812 166.05 15.4568L167.882 13.4336C168.554 12.5998 167.824 11.8661 167.184 11.9487L161.229 12.5797V12.5772Z" fill="black"/>
<path d="M54.7672 4.49705L48.272 21.5488H55.6691L52.4676 26.5767H39.5095L42.9901 17.4274L43.02 17.3022C42.3996 17.0943 41.849 16.9115 41.3731 16.7563C40.8973 16.6011 40.2844 16.4383 39.5394 16.273C39.4348 16.3356 39.2454 16.3732 38.9639 16.3832C38.6849 16.3932 38.4507 16.3982 38.2638 16.3982C37.9723 16.3982 37.6484 16.3732 37.2847 16.3206C36.9209 16.268 36.5846 16.1954 36.2756 16.1028C35.9642 16.0101 35.7101 15.91 35.5132 15.8073C35.3164 15.7021 35.2392 15.5895 35.279 15.4643C35.4858 15.4217 35.715 15.3666 35.9617 15.2915C36.2108 15.2189 36.4425 15.1463 36.6618 15.0737C36.8786 15.001 37.0654 14.9284 37.2199 14.8558C37.3744 14.7832 37.464 14.7256 37.484 14.683C37.5263 14.6405 37.3071 14.6204 36.8312 14.6204C36.602 14.6204 36.3379 14.6154 36.0389 14.6054C35.7375 14.5954 35.4111 14.5804 35.0598 14.5578C34.8106 14.5578 34.5216 14.5103 34.1903 14.4176C33.8589 14.325 33.5325 14.1823 33.2111 13.997C32.8897 13.8092 32.5833 13.5813 32.2943 13.3109C32.0028 13.0405 31.7761 12.7175 31.6116 12.3419C31.9629 12.3844 32.4089 12.4245 32.947 12.4671C33.4852 12.5096 33.9835 12.5297 34.4394 12.5297L35.2467 12.437C34.8729 12.3118 34.3348 12.099 33.6297 11.796C32.9246 11.4955 32.2096 11.14 31.4846 10.7343C30.7596 10.3287 30.0968 9.89553 29.4964 9.43731C28.8959 8.97909 28.5123 8.53089 28.3453 8.0952L28.4998 8.12775C28.8511 8.17032 29.2348 8.21038 29.6509 8.25295C30.0644 8.29552 30.625 8.31555 31.3301 8.31555H32.3242C32.531 8.31555 32.6456 8.30553 32.6655 8.283C31.6914 7.82478 30.8318 7.3265 30.0869 6.78314C29.3419 6.24229 28.6717 5.63885 28.0837 4.9728C27.4933 4.30676 26.975 3.56309 26.5291 2.7393C26.0831 1.91801 25.6745 1.00658 25.3008 0.00750732C26.8131 0.590923 28.4226 1.1518 30.1317 1.69516C31.8408 2.23601 33.6372 2.71676 35.5232 3.13241C37.4092 3.54807 39.3874 3.88109 41.4578 4.13148C43.5282 4.38187 45.6933 4.50707 47.9531 4.50707H54.7597L54.7672 4.49705Z" fill="black"/>
<path d="M64.5233 19.8937C64.2741 20.5398 64.2168 20.9754 64.3514 21.2058C64.4859 21.4362 64.8123 21.5488 65.3305 21.5488H66.2C66.7183 21.5488 67.1269 21.4337 67.4283 21.2058C67.7273 20.9754 68.0038 20.5398 68.2505 19.8937L74.1229 4.49707H80.9594L73.7815 23.3291C73.3455 24.4534 72.76 25.2772 72.025 25.7955C71.2901 26.3163 70.3209 26.5767 69.12 26.5767H58.6161C57.4152 26.5767 56.6329 26.3163 56.2691 25.7955C55.9054 25.2747 55.9427 24.4534 56.3787 23.3291L63.5566 4.49707H70.3932L64.5208 19.8937H64.5233Z" fill="black"/>
<path d="M84.6621 26.5767L84.413 22.1097L80.7779 26.5767H73.9414L83.2021 15.4893L82.3625 4.49457H89.199L89.4158 8.99163L93.0832 4.49457H99.9198L90.6914 15.4893L91.4987 26.5767H84.6621Z" fill="black"/>
<path d="M14.0172 30.4052C14.3037 30.4052 14.5305 30.5254 14.6974 30.7633C14.8618 31.0037 14.8942 31.2591 14.7946 31.532L13.1776 36.0115C13.0555 36.3495 12.8512 36.62 12.5672 36.8178C12.2832 37.0156 11.9643 37.1157 11.613 37.1157H5.4541L7.88077 30.4052H14.0197H14.0172ZM8.55845 35.4356H10.878L12.0963 32.0853H9.77677L8.55845 35.4356Z" fill="black"/>
<path d="M23.2179 32.0853H18.2027L17.9012 32.9517H22.0744L21.5238 34.3514H17.3481L16.9918 35.4356H21.9971L21.3942 37.1157H13.875L16.3017 30.4052H23.8209L23.2179 32.0853Z" fill="black"/>
<path d="M30.7598 35.4356L30.1569 37.1157H22.6377L23.2406 35.4356L28.6346 32.0853H24.4614L25.0644 30.4052H32.5836L31.9806 32.0853L27.4188 35.4356H30.7623H30.7598Z" fill="black"/>
<path d="M31.3951 37.1157L33.8217 30.4052H36.3232L37.3048 32.3257L39.6667 30.4052H42.1681L39.7414 37.1157H37.24C37.5838 36.1467 38.0522 34.8497 38.6427 33.2246C38.6078 33.2672 38.568 33.3098 38.5231 33.3498C38.4808 33.3899 38.4334 33.43 38.3836 33.4725C38.3338 33.5151 38.2939 33.5476 38.264 33.5702L36.2584 35.2178L35.5134 33.6553C35.506 33.6353 35.4835 33.5827 35.4487 33.5051C35.4138 33.4275 35.3839 33.3523 35.3615 33.2822C35.339 33.2121 35.3291 33.1445 35.3291 33.0694L33.894 37.1132H31.3926L31.3951 37.1157Z" fill="black"/>
<path d="M50.3273 32.0853H45.312L45.0106 32.9517H49.1837L48.6331 34.3514H44.4575L44.1012 35.4356H49.1065L48.5036 37.1157H40.9844L43.411 30.4052H50.9302L50.3273 32.0853Z" fill="black"/>
<path d="M49.7447 37.1157L52.1714 30.4052H54.6728L55.6544 32.3257L58.0163 30.4052H60.5177L58.091 37.1157H55.5896C55.9334 36.1467 56.4018 34.8497 56.9923 33.2246C56.9574 33.2672 56.9176 33.3098 56.8727 33.3498C56.8304 33.3899 56.783 33.43 56.7332 33.4725C56.6834 33.5151 56.6435 33.5476 56.6136 33.5702L54.608 35.2178L53.863 33.6553C53.8556 33.6353 53.8331 33.5827 53.7983 33.5051C53.7634 33.4275 53.7335 33.3523 53.7111 33.2822C53.6886 33.2121 53.6787 33.1445 53.6787 33.0694L52.2436 37.1132H49.7422L49.7447 37.1157Z" fill="black"/>
<path d="M59.3341 37.1157L61.7608 30.4052H68.0816C68.3681 30.4052 68.5948 30.5254 68.7617 30.7633C68.9262 31.0037 68.9586 31.2591 68.8589 31.532L68.3083 33.0494C68.114 33.4901 67.8225 33.7254 67.4338 33.7555H67.4761C67.4986 33.763 67.516 33.768 67.5359 33.7705C67.5534 33.773 67.5758 33.7805 67.6057 33.7855C67.6331 33.793 67.6605 33.803 67.6854 33.8181C67.7103 33.8331 67.7353 33.8531 67.7602 33.8782C67.7851 33.9032 67.805 33.9332 67.82 33.9658C67.8349 33.9984 67.8449 34.0384 67.8524 34.086C67.8598 34.1336 67.8573 34.1887 67.8474 34.2538C67.8374 34.3189 67.82 34.3865 67.7975 34.4591L67.237 36.009C67.1149 36.347 66.9131 36.6175 66.6266 36.8153C66.3425 37.0131 66.0236 37.1132 65.6723 37.1132H59.3291L59.3341 37.1157ZM65.4606 34.3514H62.7324L62.3338 35.4356H65.0619L65.4606 34.3514ZM63.5421 32.0853L63.1211 33.147H65.8517L66.2827 32.0853H63.5421Z" fill="black"/>
<path d="M68.0523 37.1157L70.479 30.4052H76.7998C77.0863 30.4052 77.313 30.5254 77.4799 30.7633C77.6444 31.0037 77.6768 31.2591 77.5771 31.532L76.8646 33.4951C76.7425 33.8356 76.5382 34.1035 76.2542 34.3038C75.9701 34.5016 75.6512 34.6018 75.2999 34.6018H75.1156L76.3887 37.1183H73.8848L72.6117 34.6018H71.4581L70.5512 37.1183H68.0498L68.0523 37.1157ZM72.3127 32.0853L71.924 33.147H74.6098L74.9985 32.0853H72.3127Z" fill="black"/>
<path d="M76.6602 37.1157L78.6882 31.5119C78.8103 31.1714 79.0121 30.9035 79.2986 30.7032C79.5826 30.5054 79.904 30.4052 80.2653 30.4052H86.6085L84.1818 37.1157H81.668L82.2834 35.4356H79.7794L79.1641 37.1157H76.6627H76.6602ZM80.9853 32.0853L80.3824 33.7655H82.8863L83.4892 32.0853H80.9878H80.9853Z" fill="black"/>
<path d="M85.4195 37.1157L87.8462 30.4052H94.167C94.4535 30.4052 94.6802 30.5254 94.8471 30.7633C95.0116 31.0037 95.044 31.2591 94.9443 31.532L94.2317 33.4951C94.1097 33.8356 93.9054 34.1035 93.6213 34.3038C93.3373 34.5016 93.0184 34.6018 92.6671 34.6018H92.4828L93.7559 37.1183H91.252L89.9788 34.6018H88.8253L87.9184 37.1183H85.417L85.4195 37.1157ZM89.6799 32.0853L89.2912 33.147H91.977L92.3657 32.0853H89.6799Z" fill="black"/>
<path d="M94.0273 37.1157L96.454 30.4152H98.9554L96.5288 37.1157H94.0273Z" fill="black"/>
<path d="M101.006 37.1157L103.034 31.5119C103.156 31.1714 103.358 30.9035 103.644 30.7032C103.928 30.5054 104.25 30.4052 104.611 30.4052H110.954L108.528 37.1157H106.014L106.629 35.4356H104.125L103.51 37.1157H101.008H101.006ZM105.331 32.0853L104.728 33.7655H107.232L107.835 32.0853H105.334H105.331Z" fill="black"/>
<path d="M114.565 30.4052L112.741 35.4356H115.051L116.874 30.4052H119.376L117.348 36.0115C117.226 36.3495 117.021 36.62 116.737 36.8178C116.453 37.0156 116.132 37.1157 115.771 37.1157H110.82C110.526 37.1157 110.295 36.9956 110.13 36.7577C109.966 36.5198 109.933 36.2644 110.033 35.989L112.049 30.4052H114.562H114.565Z" fill="black"/>
<path d="M124.49 32.0853L122.666 37.1157H120.163L121.986 32.0853H119.482L120.085 30.4052C123.235 30.4052 125.596 30.4102 127.174 30.4177L126.571 32.0979L124.488 32.0879L124.49 32.0853Z" fill="black"/>
<path d="M135.46 30.4052L133.432 36.0115C133.31 36.3495 133.106 36.62 132.822 36.8178C132.538 37.0156 132.219 37.1157 131.868 37.1157H125.773L127.801 31.5119C127.924 31.1714 128.125 30.9035 128.412 30.7032C128.696 30.5054 129.015 30.4052 129.366 30.4052H135.46ZM128.88 35.4356H131.135L132.353 32.0853H130.099L128.88 35.4356Z" fill="black"/>
</g>
<defs>
<clipPath id="clip0_81_2042">
<rect width="204" height="43" fill="white"/>
</clipPath>
</defs>
</svg>
