<svg width="215" height="45" viewBox="0 0 215 45" fill="none" xmlns="http://www.w3.org/2000/svg">
<g clip-path="url(#clip0_81_507)">
<path d="M122.68 2.59943C124.292 2.47889 153.591 2.51558 158.356 2.52868C158.443 2.5706 160.919 2.21685 168.214 14.0401C168.214 14.0401 164.493 15.3791 164.272 15.3791C164.052 15.3791 122.496 14.0951 122.496 14.0951L163.674 13.3326C161.744 10.1645 159.646 7.15891 157.353 4.34723" fill="#0E5669"/>
<path d="M177.147 26.5315V44.8585H215.003L178.415 44.0016C178.415 44.0016 178.562 31.2403 178.415 23.7879C178.268 16.3355 172.499 15.9818 172.499 15.9818C160.541 15.5442 153.228 25.5174 153.228 25.5174C160.704 22.2078 168.76 21.0549 169.091 20.5465C172.756 16.0604 177.144 18.3873 177.144 26.5315H177.147Z" fill="#0E5669"/>
<path d="M153.404 26.6415C153.404 26.6415 165.948 21.8436 170.023 22.3808C174.098 22.9153 167.912 29.6262 166.851 29.7598C165.79 29.8934 154.331 31.0988 154.331 31.0988L166.192 28.1771C166.874 27.3857 167.339 26.4005 167.972 24.4745C168.605 22.5485 153.404 26.6415 153.404 26.6415Z" fill="#0E5669"/>
<path d="M155.405 34.335C155.405 34.335 166.796 31.9609 169.755 31.9609C176.424 32.0186 169.626 44.8454 165.853 44.8611C162.08 44.8768 149.205 44.869 149.205 44.869L164.703 42.6652C164.703 42.6652 169.133 33.9708 165.948 33.824C162.854 33.6825 155.405 34.335 155.405 34.335Z" fill="#0E5669"/>
<path d="M149.817 31.822C148.707 29.1702 146.475 27.5272 144.062 27.4224L122.769 26.0205L145.708 26.0493C147.36 26.0415 148.833 27.0189 150.072 28.3658C151.356 29.7598 152.409 31.9557 152.756 33.5279C154.116 39.712 149.744 44.8533 146.435 44.8533C143.127 44.8533 0 45 0 45L142.029 43.7396C143.342 43.7265 145.976 43.2155 147.071 42.3141C151.225 38.8919 151.359 35.4985 149.817 31.822Z" fill="#0E5669"/>
<path d="M169.923 13.1622L171.785 12.0695C172.018 11.9333 172.268 11.8285 172.53 11.7629C173.846 11.438 175.597 11.3332 177.286 11.6555C178.003 11.8704 181.319 14.1082 175.004 16.1757L176.934 14.0584C177.643 13.1858 176.873 12.418 176.199 12.5045L169.923 13.1649V13.1622Z" fill="#0E5669"/>
<path d="M57.7202 4.70622L50.8748 22.5511H58.6707L55.2966 27.8128H41.6398L45.3081 18.2379L45.3396 18.1069C44.6858 17.8894 44.1055 17.6981 43.6039 17.5357C43.1024 17.3732 42.4565 17.2029 41.6713 17.0299C41.5611 17.0954 41.3615 17.1347 41.0648 17.1452C40.7707 17.1557 40.5239 17.1609 40.3269 17.1609C40.0197 17.1609 39.6784 17.1347 39.295 17.0797C38.9116 17.0247 38.5572 16.9487 38.2316 16.8517C37.9033 16.7548 37.6355 16.65 37.4281 16.5425C37.2206 16.4325 37.1392 16.3146 37.1812 16.1835C37.3992 16.139 37.6408 16.0813 37.9007 16.0027C38.1633 15.9267 38.4075 15.8508 38.6386 15.7748C38.867 15.6988 39.0639 15.6228 39.2267 15.5468C39.3895 15.4708 39.4841 15.4105 39.5051 15.366C39.5497 15.3214 39.3186 15.3005 38.8171 15.3005C38.5755 15.3005 38.2972 15.2952 37.9821 15.2847C37.6644 15.2743 37.3204 15.2585 36.9502 15.235C36.6876 15.235 36.383 15.1852 36.0338 15.0882C35.6845 14.9913 35.3406 14.8419 35.0018 14.648C34.6631 14.4515 34.3401 14.213 34.0355 13.93C33.7283 13.647 33.4894 13.309 33.3161 12.9159C33.6863 12.9605 34.1563 13.0024 34.7235 13.0469C35.2907 13.0915 35.8158 13.1124 36.2963 13.1124L37.1471 13.0155C36.7532 12.8845 36.1861 12.6617 35.443 12.3447C34.6999 12.0302 33.9463 11.6581 33.1822 11.2336C32.4181 10.8091 31.7196 10.3558 31.0868 9.87626C30.454 9.39673 30.0496 8.92768 29.8737 8.47173L30.0365 8.50579C30.4067 8.55034 30.8111 8.59227 31.2496 8.63681C31.6855 8.68136 32.2763 8.70232 33.0194 8.70232H34.0671C34.285 8.70232 34.4058 8.69184 34.4268 8.66826C33.4001 8.18873 32.4942 7.66727 31.7091 7.09864C30.924 6.53264 30.2176 5.90112 29.598 5.2041C28.9756 4.50707 28.4295 3.72882 27.9595 2.86671C27.4894 2.00722 27.0588 1.0534 26.6649 0.00785828C28.2588 0.61841 29.9551 1.20538 31.7564 1.774C33.5576 2.34001 35.4508 2.84312 37.4386 3.27811C39.4263 3.71309 41.5112 4.06161 43.6932 4.32365C45.8752 4.58568 48.1571 4.7167 50.5387 4.7167H57.7123L57.7202 4.70622Z" fill="#FFC107"/>
<path d="M68.0028 20.819C67.7402 21.4951 67.6798 21.951 67.8216 22.1921C67.9634 22.4332 68.3074 22.5511 68.8536 22.5511H69.77C70.3161 22.5511 70.7468 22.4306 71.0645 22.1921C71.3796 21.951 71.671 21.4951 71.931 20.819L78.12 4.70622H85.3252L77.7603 24.4142C77.3007 25.5907 76.6837 26.4529 75.9091 26.9953C75.1345 27.5403 74.113 27.8128 72.8474 27.8128H61.7771C60.5114 27.8128 59.6869 27.5403 59.3036 26.9953C58.9202 26.4502 58.9596 25.5907 59.4191 24.4142L66.984 4.70622H74.1892L68.0002 20.819H68.0028Z" fill="#FFC107"/>
<path d="M89.2271 27.8128L88.9645 23.1381L85.1335 27.8128H77.9283L87.6884 16.2097L86.8035 4.7036H94.0087L94.2371 9.40982L98.1023 4.7036H105.307L95.5815 16.2097L96.4323 27.8128H89.2271Z" fill="#FFC107"/>
<path d="M14.7727 31.8194C15.0747 31.8194 15.3136 31.9452 15.4896 32.1941C15.6629 32.4457 15.697 32.713 15.592 32.9986L13.8878 37.6865C13.7592 38.0402 13.5438 38.3232 13.2445 38.5303C12.9452 38.7373 12.6091 38.8421 12.2388 38.8421H5.74786L8.30539 31.8194H14.7753H14.7727ZM9.0196 37.0838H11.4642L12.7482 33.5777H10.3036L9.0196 37.0838Z" fill="#FFC107"/>
<path d="M24.4698 33.5777H19.1841L18.8663 34.4844H23.2645L22.6842 35.9492H18.2834L17.9079 37.0838H23.1831L22.5477 38.8421H14.623L17.1806 31.8194H25.1052L24.4698 33.5777Z" fill="#FFC107"/>
<path d="M32.4181 37.0838L31.7826 38.8421H23.858L24.4934 37.0838L30.1782 33.5777H25.78L26.4155 31.8194H34.3401L33.7047 33.5777L28.8969 37.0838H32.4207H32.4181Z" fill="#FFC107"/>
<path d="M33.0876 38.8421L35.6452 31.8194H38.2815L39.316 33.8293L41.8053 31.8194H44.4416L41.884 38.8421H39.2477C39.6101 37.828 40.1038 36.4706 40.7261 34.77C40.6893 34.8145 40.6473 34.8591 40.6 34.901C40.5554 34.9429 40.5055 34.9849 40.453 35.0294C40.4005 35.074 40.3585 35.108 40.3269 35.1316L38.2132 36.8558L37.4281 35.2207C37.4202 35.1997 37.3966 35.1447 37.3598 35.0635C37.323 34.9822 37.2915 34.9036 37.2679 34.8303C37.2443 34.7569 37.2338 34.6861 37.2338 34.6075L35.7213 38.8395H33.085L33.0876 38.8421Z" fill="#FFC107"/>
<path d="M53.041 33.5777H47.7553L47.4376 34.4844H51.8358L51.2555 35.9492H46.8547L46.4792 37.0838H51.7544L51.119 38.8421H43.1943L45.7518 31.8194H53.6765L53.041 33.5777Z" fill="#FFC107"/>
<path d="M52.4266 38.8421L54.9841 31.8194H57.6204L58.655 33.8293L61.1442 31.8194H63.7805L61.223 38.8421H58.5867C58.9491 37.828 59.4427 36.4706 60.065 34.77C60.0283 34.8145 59.9863 34.8591 59.939 34.901C59.8944 34.9429 59.8445 34.9849 59.792 35.0294C59.7394 35.074 59.6974 35.108 59.6659 35.1316L57.5522 36.8558L56.767 35.2207C56.7592 35.1997 56.7355 35.1447 56.6988 35.0635C56.662 34.9822 56.6305 34.9036 56.6069 34.8303C56.5832 34.7569 56.5727 34.6861 56.5727 34.6075L55.0603 38.8395H52.424L52.4266 38.8421Z" fill="#FFC107"/>
<path d="M62.5333 38.8421L65.0908 31.8194H71.7525C72.0544 31.8194 72.2934 31.9452 72.4693 32.1941C72.6426 32.4457 72.6767 32.713 72.5717 32.9986L71.9914 34.5866C71.7866 35.0478 71.4794 35.2941 71.0698 35.3255H71.1144C71.138 35.3334 71.1564 35.3386 71.1774 35.3412C71.1958 35.3439 71.2194 35.3517 71.2509 35.357C71.2798 35.3648 71.3087 35.3753 71.335 35.391C71.3612 35.4067 71.3875 35.4277 71.4137 35.4539C71.44 35.4801 71.461 35.5116 71.4767 35.5456C71.4925 35.5797 71.503 35.6216 71.5109 35.6714C71.5188 35.7212 71.5161 35.7788 71.5056 35.847C71.4951 35.9151 71.4767 35.9859 71.4531 36.0618L70.8623 37.6839C70.7336 38.0376 70.521 38.3206 70.219 38.5276C69.9197 38.7346 69.5836 38.8395 69.2133 38.8395H62.528L62.5333 38.8421ZM68.9901 35.9492H66.1149L65.6948 37.0838H68.57L68.9901 35.9492ZM66.9683 33.5777L66.5245 34.6888H69.4024L69.8566 33.5777H66.9683Z" fill="#FFC107"/>
<path d="M71.7209 38.8421L74.2785 31.8194H80.9401C81.2421 31.8194 81.481 31.9452 81.6569 32.1941C81.8302 32.4457 81.8644 32.713 81.7593 32.9986L81.0084 35.053C80.8797 35.4094 80.6644 35.6897 80.365 35.8994C80.0657 36.1064 79.7296 36.2112 79.3594 36.2112H79.1651L80.5068 38.8447H77.8679L76.5261 36.2112H75.3104L74.3546 38.8447H71.7183L71.7209 38.8421ZM76.211 33.5777L75.8014 34.6888H78.632L79.0416 33.5777H76.211Z" fill="#FFC107"/>
<path d="M80.793 38.8421L82.9304 32.9776C83.0591 32.6213 83.2718 32.3409 83.5738 32.1313C83.8731 31.9242 84.2118 31.8194 84.5926 31.8194H91.2778L88.7203 38.8421H86.0709L86.7195 37.0838H84.0805L83.432 38.8421H80.7957H80.793ZM85.3514 33.5777L84.716 35.336H87.3549L87.9903 33.5777H85.354H85.3514Z" fill="#FFC107"/>
<path d="M90.0253 38.8421L92.5829 31.8194H99.2445C99.5465 31.8194 99.7854 31.9452 99.9613 32.1941C100.135 32.4457 100.169 32.713 100.064 32.9986L99.3128 35.053C99.1841 35.4094 98.9688 35.6897 98.6694 35.8994C98.3701 36.1064 98.034 36.2112 97.6638 36.2112H97.4695L98.8112 38.8447H96.1723L94.8305 36.2112H93.6148L92.659 38.8447H90.0227L90.0253 38.8421ZM94.5154 33.5777L94.1058 34.6888H96.9364L97.346 33.5777H94.5154Z" fill="#FFC107"/>
<path d="M99.0975 38.8421L101.655 31.8299H104.291L101.734 38.8421H99.0975Z" fill="#FFC107"/>
<path d="M106.452 38.8421L108.59 32.9776C108.718 32.6213 108.931 32.3409 109.233 32.1313C109.532 31.9242 109.871 31.8194 110.252 31.8194H116.937L114.38 38.8421H111.73L112.379 37.0838H109.74L109.091 38.8421H106.455H106.452ZM111.011 33.5777L110.375 35.336H113.014L113.65 33.5777H111.013H111.011Z" fill="#FFC107"/>
<path d="M120.742 31.8194L118.82 37.0838H121.254L123.176 31.8194H125.812L123.675 37.6865C123.546 38.0402 123.331 38.3232 123.032 38.5303C122.732 38.7373 122.394 38.8421 122.013 38.8421H116.795C116.485 38.8421 116.241 38.7163 116.068 38.4674C115.895 38.2184 115.861 37.9511 115.966 37.6629L118.09 31.8194H120.739H120.742Z" fill="#FFC107"/>
<path d="M131.203 33.5777L129.281 38.8421H126.642L128.564 33.5777H125.925L126.561 31.8194C129.88 31.8194 132.369 31.8247 134.031 31.8325L133.396 33.5908L131.2 33.5803L131.203 33.5777Z" fill="#FFC107"/>
<path d="M142.764 31.8194L140.627 37.6865C140.498 38.0402 140.283 38.3232 139.984 38.5303C139.684 38.7373 139.348 38.8421 138.978 38.8421H132.555L134.693 32.9776C134.821 32.6213 135.034 32.3409 135.336 32.1313C135.635 31.9242 135.971 31.8194 136.342 31.8194H142.764ZM135.83 37.0838H138.206L139.49 33.5777H137.114L135.83 37.0838Z" fill="#FFC107"/>
</g>
<defs>
<clipPath id="clip0_81_507">
<rect width="215" height="45" fill="white"/>
</clipPath>
</defs>
</svg>
