<svg width="42" height="42" viewBox="0 0 42 42" fill="none" xmlns="http://www.w3.org/2000/svg">
<path d="M32.137 30.387L21 41.524L9.86301 30.387C7.66035 28.1843 6.16033 25.3779 5.55262 22.3227C4.94492 19.2675 5.25684 16.1007 6.44892 13.2228C7.64101 10.3449 9.65973 7.88509 12.2498 6.15446C14.8399 4.42384 17.885 3.50012 21 3.50012C24.1151 3.50012 27.1601 4.42384 29.7502 6.15446C32.3403 7.88509 34.359 10.3449 35.5511 13.2228C36.7432 16.1007 37.0551 19.2675 36.4474 22.3227C35.8397 25.3779 34.3397 28.1843 32.137 30.387ZM21 22.75C21.9283 22.75 22.8185 22.3812 23.4749 21.7249C24.1313 21.0685 24.5 20.1782 24.5 19.25C24.5 18.3217 24.1313 17.4315 23.4749 16.7751C22.8185 16.1187 21.9283 15.75 21 15.75C20.0717 15.75 19.1815 16.1187 18.5251 16.7751C17.8688 17.4315 17.5 18.3217 17.5 19.25C17.5 20.1782 17.8688 21.0685 18.5251 21.7249C19.1815 22.3812 20.0717 22.75 21 22.75Z" fill="#FFC107"/>
</svg>
