<svg width="32" height="33" viewBox="0 0 32 33" fill="none" xmlns="http://www.w3.org/2000/svg">
<path d="M15.665 0.694458C24.3162 0.694661 31.3291 7.70827 31.3291 16.3595C31.329 25.0107 24.3162 32.0234 15.665 32.0236C7.01373 32.0236 7.113e-05 25.0108 0 16.3595C0 7.70814 7.01368 0.694458 15.665 0.694458ZM7.99902 8.6925C7.32121 8.6925 6.6707 8.96127 6.19141 9.44055C5.71211 9.91984 5.44336 10.5703 5.44336 11.2482V21.4708C5.44336 22.1486 5.71211 22.7992 6.19141 23.2784C6.67069 23.7577 7.32126 24.0265 7.99902 24.0265H23.333C24.0108 24.0265 24.6613 23.7577 25.1406 23.2784C25.6199 22.7992 25.8887 22.1486 25.8887 21.4708V11.2482C25.8887 10.5704 25.6199 9.91984 25.1406 9.44055C24.6613 8.96126 24.0108 8.6925 23.333 8.6925H7.99902ZM24.5469 10.8439C24.5897 10.9742 24.6118 11.111 24.6113 11.2482V21.4708C24.6113 21.8097 24.476 22.1345 24.2363 22.3741C23.9967 22.6138 23.6719 22.7491 23.333 22.7491H7.99902C7.66011 22.7491 7.33437 22.6138 7.09473 22.3741C6.85531 22.1345 6.7207 21.8096 6.7207 21.4708V11.2482C6.7206 11.1109 6.74287 10.9741 6.78613 10.8439L14.8496 17.5245C15.0788 17.7145 15.3673 17.8185 15.665 17.8185C15.9625 17.8184 16.2504 17.7143 16.4795 17.5245L24.5469 10.8439ZM23.6758 9.96985L16.4785 15.8556C16.2495 16.0429 15.9628 16.1452 15.667 16.1447C15.371 16.144 15.0837 16.0402 14.8555 15.8517L7.73047 9.96985H23.6758Z" fill="black"/>
</svg>
