<svg width="24" height="24" viewBox="0 0 24 24" fill="none" xmlns="http://www.w3.org/2000/svg">
<path d="M13.2673 4.20929C12.9674 3.9236 12.4926 3.93514 12.2069 4.23507C11.9212 4.535 11.9328 5.00973 12.2327 5.29542L18.4841 11.25L3.75 11.25C3.33579 11.25 3 11.5858 3 12C3 12.4142 3.33579 12.75 3.75 12.75L18.4842 12.75L12.2327 18.7047C11.9328 18.9904 11.9213 19.4652 12.2069 19.7651C12.4926 20.065 12.9674 20.0766 13.2673 19.7909L20.6862 12.7242C20.8551 12.5633 20.9551 12.358 20.9861 12.1446C20.9952 12.0978 21 12.0495 21 12C21 11.9505 20.9952 11.902 20.986 11.8551C20.955 11.6419 20.855 11.4368 20.6862 11.276L13.2673 4.20929Z" fill="#242424"/>
</svg>
