<svg width="69" height="68" viewBox="0 0 69 68" fill="none" xmlns="http://www.w3.org/2000/svg">
<g clip-path="url(#clip0_43_464)">
<path fill-rule="evenodd" clip-rule="evenodd" d="M52.0024 8.5H16.2429L4.37268 20.3703V59.5H63.8727V20.3703L52.0024 8.5ZM11.6274 19.125L18.0024 12.75H50.2429L56.6179 19.125H11.6274ZM28.6274 34L31.3772 31.2545L28.3724 28.2455L18.3679 38.25H42.6227C43.1863 38.25 43.7268 38.4739 44.1253 38.8724C44.5238 39.2709 44.7477 39.8114 44.7477 40.375C44.7477 40.9386 44.5238 41.4791 44.1253 41.8776C43.7268 42.2761 43.1863 42.5 42.6227 42.5H25.6227V46.75H42.6227C44.3134 46.75 45.9349 46.0784 47.1305 44.8828C48.326 43.6873 48.9977 42.0658 48.9977 40.375C48.9977 38.6842 48.326 37.0627 47.1305 35.8672C45.9349 34.6716 44.3134 34 42.6227 34H28.6274Z" fill="#FFC107"/>
</g>
<defs>
<clipPath id="clip0_43_464">
<rect width="68" height="68" fill="white" transform="translate(0.122681)"/>
</clipPath>
</defs>
</svg>
