<svg width="17" height="17" viewBox="0 0 17 17" fill="none" xmlns="http://www.w3.org/2000/svg">
<path d="M5.5 2.5V5C5.5 5.82843 6.17157 6.5 7 6.5H9C9.82843 6.5 10.5 5.82843 10.5 5V2.5H10.8787C11.4091 2.5 11.9178 2.71071 12.2929 3.08579L13.9142 4.70711C14.2893 5.08218 14.5 5.59089 14.5 6.12132V12.5C14.5 13.6046 13.6046 14.5 12.5 14.5V10C12.5 9.17157 11.8284 8.5 11 8.5H6C5.1727 8.5 4.5 9.16872 4.5 9.99827V14.4999C3.39549 14.4999 2.5 13.6046 2.5 12.5V4.5C2.5 3.39543 3.39543 2.5 4.5 2.5H5.5ZM6.5 2.5V5C6.5 5.27614 6.72386 5.5 7 5.5H9C9.27614 5.5 9.5 5.27614 9.5 5V2.5H6.5ZM5.5 14.5H11.5V10C11.5 9.72386 11.2761 9.5 11 9.5H6C5.72273 9.5 5.5 9.72326 5.5 9.99827V14.5Z" fill="white"/>
</svg>
