<svg width="17" height="17" viewBox="0 0 17 17" fill="none" xmlns="http://www.w3.org/2000/svg">
<path d="M7.7879 2.64638C7.9833 2.45105 8.30009 2.45123 8.49527 2.64678C9.73532 3.88913 11.1095 4.5 12.6406 4.5C12.9168 4.5 13.1406 4.72386 13.1406 5V6.09971C12.8238 5.93777 12.4893 5.80564 12.1406 5.70703V5.48121C10.6601 5.36895 9.32583 4.75528 8.14104 3.68917C6.95455 4.75491 5.62003 5.36879 4.14062 5.48118V8.00126C4.14062 9.43206 4.50188 10.561 5.15798 11.4401C5.2103 12.101 5.37946 12.729 5.6448 13.3035C3.98543 12.0888 3.14062 10.3102 3.14062 8.00126V5C3.14062 4.72386 3.36448 4.5 3.64062 4.5C5.16985 4.5 6.54479 3.88902 7.7879 2.64638ZM15.1406 11C15.1406 13.4853 13.1259 15.5 10.6406 15.5C8.15534 15.5 6.14062 13.4853 6.14062 11C6.14062 8.51472 8.15534 6.5 10.6406 6.5C13.1259 6.5 15.1406 8.51472 15.1406 11ZM12.9942 9.14645C12.7989 8.95118 12.4823 8.95118 12.2871 9.14645L9.64062 11.7929L8.99418 11.1464C8.79892 10.9512 8.48233 10.9512 8.28707 11.1464C8.09181 11.3417 8.09181 11.6583 8.28707 11.8536L9.28707 12.8536C9.48233 13.0488 9.79892 13.0488 9.99418 12.8536L12.9942 9.85355C13.1894 9.65829 13.1894 9.34171 12.9942 9.14645Z" fill="black"/>
</svg>
