<svg width="69" height="68" viewBox="0 0 69 68" fill="none" xmlns="http://www.w3.org/2000/svg">
<path d="M28.4238 45.8235L28.4196 45.8107L27.6121 45.5472C23.7716 44.1898 20.4022 41.7571 17.9051 38.539C15.8858 35.9387 14.4984 32.9049 13.8521 29.6767C13.2059 26.4486 13.3186 23.1144 14.1812 19.9373C15.0439 16.7601 16.633 13.8268 18.8231 11.3688C21.0133 8.91082 23.7446 6.99531 26.8016 5.77339C29.8587 4.55146 33.1578 4.05655 36.4388 4.32769C39.7198 4.59882 42.893 5.62859 45.708 7.33577C48.5229 9.04295 50.9028 11.3808 52.6597 14.165C54.4167 16.9492 55.5027 20.1036 55.8321 23.3792C55.9468 24.548 54.9821 25.5 53.8091 25.5C52.6361 25.5 51.6968 24.5437 51.5566 23.3792C51.1773 20.3738 50.0018 17.5242 48.1517 15.1255C46.3016 12.7268 43.8442 10.866 41.0337 9.73563C38.2231 8.60529 35.1616 8.24647 32.1659 8.69632C29.1702 9.14616 26.3491 10.3883 23.9945 12.2943C21.6399 14.2002 19.8374 16.7007 18.7734 19.537C17.7095 22.3733 17.4227 25.4424 17.9428 28.4267C18.463 31.4111 19.7711 34.2022 21.7319 36.5113C23.6926 38.8205 26.2348 40.5637 29.0953 41.5607C29.8169 40.2447 30.9796 39.2254 32.3788 38.6824C33.778 38.1394 35.3239 38.1075 36.7443 38.5922C38.1647 39.077 39.3686 40.0474 40.1438 41.3325C40.9191 42.6176 41.2162 44.135 40.9826 45.6176C40.7491 47.1001 39.9999 48.4528 38.8671 49.4373C37.7343 50.4218 36.2904 50.9751 34.7898 50.9997C33.2891 51.0243 31.8279 50.5187 30.6634 49.5718C29.4989 48.625 28.7059 47.2976 28.4238 45.8235ZM25.0536 49.1172C20.8912 47.4179 17.252 44.6482 14.5051 41.089C13.8069 42.1361 13.4342 43.3664 13.4341 44.625V46.75C13.4341 55.1267 21.3391 63.75 34.6841 63.75C48.0291 63.75 55.9341 55.1267 55.9341 46.75V44.625C55.9341 42.9342 55.2624 41.3127 54.0669 40.1172C52.8713 38.9216 51.2498 38.25 49.5591 38.25H43.1841C44.0755 39.4404 44.707 40.8048 45.0379 42.2547C45.3687 43.7047 45.3915 45.2079 45.1047 46.6672C44.8179 48.1265 44.2279 49.5094 43.373 50.7263C42.518 51.9432 41.4171 52.967 40.1415 53.7316C38.8659 54.4962 37.444 54.9845 35.9678 55.1649C34.4915 55.3453 32.9939 55.2137 31.5717 54.7788C30.1495 54.3438 28.8345 53.6151 27.7117 52.6399C26.5889 51.6646 25.6833 50.4645 25.0536 49.1172ZM47.4341 25.5C47.4341 21.6155 45.6958 18.1347 42.9546 15.7972C41.6162 14.6635 40.0582 13.8182 38.3782 13.3141C36.6981 12.81 34.9321 12.6579 33.1907 12.8675C31.4492 13.077 29.7697 13.6437 28.2572 14.5319C26.7447 15.4202 25.4317 16.6109 24.4004 18.0298C23.3691 19.4486 22.6417 21.065 22.2636 22.7778C21.8855 24.4906 21.8648 26.263 22.203 27.9841C22.5411 29.7053 23.2308 31.3381 24.2288 32.7806C25.2268 34.223 26.5117 35.444 28.0031 36.3672C29.8929 34.8352 32.2513 33.998 34.6841 33.9957C37.1159 33.9956 39.4741 34.8297 41.3651 36.3587C43.2198 35.2177 44.7513 33.6206 45.8137 31.7197C46.8761 29.8189 47.434 27.6776 47.4341 25.5Z" fill="#FFC107"/>
</svg>
