<svg width="32" height="33" viewBox="0 0 32 33" fill="none" xmlns="http://www.w3.org/2000/svg">
<g clip-path="url(#clip0_169_962)">
<path d="M15.7275 0.911377C24.4226 0.911377 31.4551 7.94383 31.4551 16.6389C31.4551 25.334 24.4226 32.3665 15.7275 32.3665C7.03246 32.3665 0 25.334 0 16.6389C0 7.94383 7.03246 0.911377 15.7275 0.911377ZM12.8516 24.9296C19.8167 24.9296 23.6362 19.1553 23.6362 14.145V13.6507C24.3777 13.1115 25.0293 12.4374 25.5236 11.6735C24.8495 11.9656 24.1081 12.1678 23.3442 12.2801C24.1305 11.8083 24.7372 11.0669 25.0068 10.1906C24.2653 10.6175 23.4565 10.9321 22.6027 11.1118C21.9062 10.3704 20.9176 9.92101 19.8392 9.92101C17.7497 9.92101 16.0421 11.6286 16.0421 13.7181C16.0421 14.0102 16.0646 14.3023 16.1544 14.5719C13.0089 14.4146 10.2004 12.9092 8.3356 10.6175C8.02105 11.1792 7.81883 11.8308 7.81883 12.5273C7.81883 13.8304 8.49287 14.9988 9.50393 15.6728C8.87483 15.6728 8.29066 15.4931 7.79637 15.201V15.2459C7.79637 17.0883 9.09951 18.6161 10.8295 18.9756C10.515 19.0655 10.178 19.1104 9.84095 19.1104C9.5938 19.1104 9.36912 19.0879 9.12197 19.043C9.5938 20.5483 11.0093 21.6493 12.6494 21.6717C11.3463 22.6828 9.70614 23.2894 7.93117 23.2894C7.61662 23.2894 7.32454 23.2894 7.03246 23.2445C8.69508 24.3229 10.6947 24.952 12.8292 24.952" fill="black"/>
</g>
<defs>
<clipPath id="clip0_169_962">
<rect width="31.4551" height="31.4551" fill="white" transform="translate(0 0.911377)"/>
</clipPath>
</defs>
</svg>
