<svg width="32" height="33" viewBox="0 0 32 33" fill="none" xmlns="http://www.w3.org/2000/svg">
<path d="M15.5635 0.985596C24.1586 0.985746 31.1259 7.95389 31.126 16.5491C31.126 25.1443 24.1587 32.1124 15.5635 32.1125C6.96816 32.1125 0 25.1444 0 16.5491C4.74171e-05 7.9538 6.96819 0.985596 15.5635 0.985596ZM15.6006 7.11255C10.4223 7.11255 6.20316 11.3278 6.20312 16.5061C6.19987 18.1549 6.63175 19.7755 7.45605 21.2034L6.12402 26.0715L11.1064 24.7629C12.4841 25.5133 14.0279 25.907 15.5967 25.9084H15.6006C20.7795 25.9084 24.9937 21.6949 24.9971 16.5129C24.9971 14.0036 24.0205 11.6439 22.248 9.86743C21.3772 8.99168 20.3411 8.29734 19.2002 7.82446C18.0592 7.35156 16.8357 7.10957 15.6006 7.11255ZM15.6035 8.70142C16.6292 8.69875 17.6453 8.89947 18.5928 9.29224C19.5404 9.68504 20.401 10.2619 21.124 10.9895C21.8505 11.7137 22.4263 12.5748 22.8184 13.5227C23.2104 14.4706 23.4109 15.4872 23.4082 16.5129C23.4079 20.8196 19.9041 24.3213 15.6006 24.3215H15.5967C14.1983 24.3215 12.8257 23.9455 11.6221 23.2336L11.3359 23.0647L8.37793 23.8391L9.16797 20.9573L8.9834 20.6624C8.20048 19.4177 7.78604 17.9765 7.78809 16.5061C7.78812 12.2031 11.2934 8.70142 15.6035 8.70142ZM12.2734 12.1692C12.1162 12.1693 11.8618 12.2277 11.6465 12.4641C11.4318 12.6977 10.8262 13.2667 10.8262 14.4211C10.8264 15.5762 11.6672 16.6936 11.7852 16.8508C11.9016 17.0043 13.4408 19.3753 15.7959 20.3928C16.2324 20.5813 16.6788 20.746 17.1328 20.887C17.6949 21.0646 18.2076 21.0406 18.6133 20.9817C19.0647 20.9148 20.0016 20.4132 20.1982 19.8635C20.3922 19.3174 20.3919 18.8478 20.333 18.7493C20.2748 18.651 20.1185 18.5915 19.8818 18.4719C19.6479 18.3553 18.4929 17.7882 18.2783 17.7112C18.0637 17.631 17.9065 17.5939 17.75 17.8274C17.5926 18.0634 17.1444 18.5928 17.0068 18.7493C16.8717 18.9023 16.7334 18.9239 16.5 18.8069C16.2641 18.6905 15.5085 18.4411 14.6113 17.6399C13.914 17.0189 13.4411 16.2487 13.3057 16.0149C13.1673 15.779 13.2901 15.6533 13.4072 15.5354C13.5142 15.4316 13.6426 15.2617 13.7598 15.1233C13.8761 14.9889 13.9175 14.8909 13.9961 14.7336C14.0731 14.5772 14.0336 14.4389 13.9746 14.3225C13.9164 14.2061 13.4466 13.0476 13.25 12.5774C13.0589 12.1199 12.8656 12.1847 12.7217 12.176C12.5865 12.1697 12.4298 12.1692 12.2734 12.1692Z" fill="black"/>
</svg>
